<?xml version="1.0" standalone="no"?><svg xmlns="http://www.w3.org/2000/svg" viewBox="0 0 1440 320"><path fill="#0099ff" fill-opacity="1" d="M0,256L26.7,256C53.3,256,107,256,160,240C213.3,224,267,192,320,176C373.3,160,427,160,480,181.3C533.3,203,587,245,640,256C693.3,267,747,245,800,224C853.3,203,907,181,960,181.3C1013.3,181,1067,203,1120,224C1173.3,245,1227,267,1280,250.7C1333.3,235,1387,181,1413,154.7L1440,128L1440,320L1413.3,320C1386.7,320,1333,320,1280,320C1226.7,320,1173,320,1120,320C1066.7,320,1013,320,960,320C906.7,320,853,320,800,320C746.7,320,693,320,640,320C586.7,320,533,320,480,320C426.7,320,373,320,320,320C266.7,320,213,320,160,320C106.7,320,53,320,27,320L0,320Z"></path></svg>